<?xml version="1.0" standalone="no"?>
<!DOCTYPE svg PUBLIC "-//W3C//DTD SVG 20010904//EN"
 "http://www.w3.org/TR/2001/REC-SVG-20010904/DTD/svg10.dtd">
<svg version="1.0" xmlns="http://www.w3.org/2000/svg"
 width="260.000000pt" height="260.000000pt" viewBox="0 0 260.000000 260.000000"
 preserveAspectRatio="xMidYMid meet">
<metadata>
Created by potrace 1.11, written by Peter Selinger 2001-2013
</metadata>
<g transform="translate(0.000000,260.000000) scale(0.100000,-0.100000)"
fill="#000000" stroke="none">
<path d="M1140 2594 c-21 -4 -79 -14 -167 -30 -12 -2 -54 -16 -95 -30 -40 -14
-83 -28 -95 -31 -13 -3 -23 -9 -23 -14 0 -5 -6 -9 -14 -9 -27 0 -209 -112
-285 -175 -224 -187 -394 -483 -444 -775 -15 -85 -16 -374 -2 -450 26 -145 61
-248 128 -383 170 -341 498 -589 889 -673 115 -25 408 -25 528 -1 383 76 709
318 889 658 60 113 116 277 135 398 19 113 14 378 -8 487 -79 391 -329 719
-683 898 -81 40 -217 89 -293 105 -30 6 -66 14 -80 17 -30 7 -345 13 -380 8z"/>
</g>
</svg>
